<svg width="280" height="301" viewBox="0 0 280 301" fill="none" xmlns="http://www.w3.org/2000/svg">
<path fill-rule="evenodd" clip-rule="evenodd" d="M140.301 0L0 48.701L20.0856 234.836L140.301 300.321V0Z" fill="#412846"/>
<path fill-rule="evenodd" clip-rule="evenodd" d="M139.699 0L280 48.701L259.914 234.836L139.699 300.321V0Z" fill="#4B314F"/>
<path fill-rule="evenodd" clip-rule="evenodd" d="M209.931 102.767L209.906 102.687C216.312 109.817 219.603 118.284 219.778 128.086C219.953 137.889 216.662 148.23 209.83 159.077C214.936 155.107 220.833 146.54 227.5 133.472C230.381 159.955 219.679 180.07 195.295 193.846C203.08 193.128 213.416 188.003 226.236 178.452C212.555 211.388 187.401 228.766 150.774 230.584C115.375 230.575 92.4438 209.303 92.4619 209.316C77.9086 197.989 67.8955 183.713 62.4563 166.552C53.7522 157.046 53.6654 156.027 52.7675 152.229C51.8697 148.43 53.3347 147.369 55.8844 143.653C57.5843 141.175 57.9849 137.61 57.1115 133.023C54.9446 130.018 53.6967 125.312 53.3679 118.904C53.3679 115.807 55.4346 112.54 59.568 109.102C63.7014 105.664 66.2373 103.02 67.156 101.199C67.8568 100.207 68.1275 95.9042 67.9682 88.2916C67.9254 80.8145 72.0769 76.7466 80.4227 76.0878C92.9414 75.0995 100.002 65.6843 103.935 61.4026C106.557 58.5481 110.437 57.1607 115.332 57.134C122.222 56.811 128.492 59.4524 133.893 64.9034C147.346 64.2076 161.125 67.8355 175.088 75.6949C194.929 87.4813 205.758 100.245 207.573 113.923C205.447 131.922 181.267 131.452 135.142 112.507C111.004 119.344 99.1371 134.16 99.5313 156.955C99.5148 177.872 109.639 193.072 129.833 202.539C119.99 192.876 115.799 184.754 117.21 178.027C137.683 202.272 161.003 211.334 187.129 205.215C175.61 205.617 166.487 201.911 159.62 194.04C177.279 193.611 193.95 185.413 209.649 169.363C200.587 176.575 191.104 179.305 181.064 177.588C208.257 156.209 217.879 131.269 209.931 102.767ZM160.577 99.4778C162.781 99.4778 164.568 97.6908 164.568 95.4864C164.568 93.282 162.781 91.495 160.577 91.495C158.372 91.495 156.585 93.282 156.585 95.4864C156.585 97.6908 158.372 99.4778 160.577 99.4778Z" fill="#BA2BD2"/>
</svg>
